Coordinates
version=1
nRows=18
nColumns=32
inDegrees=yes

Units are S.I. units (second, meters, Newtons, ...)
If the header above contains a line with 'inDegrees', this indicates whether rotational values are in degrees (yes) or radians (no).

endheader
time	pelvis_tilt	pelvis_list	pelvis_rotation	pelvis_tx	pelvis_ty	pelvis_tz	hip_flexion_r	hip_adduction_r	hip_rotation_r	knee_angle_r	knee_adduction_r	med_cond_adduction_r	lat_cond_adduction_r	patella_r_constrained_knee_angle	ankle_angle_r	subtalar_angle_r	mtp_angle_r	hip_flexion_l	hip_adduction_l	hip_rotation_l	knee_angle_l	knee_adduction_l	med_cond_adduction_l	lat_cond_adduction_l	patella_l_constrained_knee_angle	ankle_angle_l	subtalar_angle_l	mtp_angle_l	lumbar_extension	lumbar_bending	lumbar_rotation
      0.81000000	     -8.35956579	      3.20358221	     -4.91655697	      0.19700598	      0.86444410	     -1.18878526	     28.26009095	    -29.43610654	    -18.26314597	    -33.01714941	      2.50292778	      0.00000000	      0.00000000	     -0.57625797	      1.12330808	      9.21947490	     -0.00000000	     22.74067014	    -26.07438007	    -33.83992920	    -32.66564876	     -0.53256965	      0.00000000	      0.00000000	     -0.57012312	      2.35417059	     17.85200057	      0.00000000	     -8.57286085	     -2.97031121	      0.64180048
      0.81500000	     -8.60178433	      3.23354483	     -4.97854338	      0.19600626	      0.86226283	     -1.18853128	     29.12593520	    -29.58073504	    -17.81815797	    -33.86443240	      2.60301486	     -0.00000000	     -0.00000000	     -0.59104584	      1.47249434	      9.22825974	     -0.00000000	     23.45527937	    -26.38527551	    -33.64119053	    -33.53141202	     -0.51376224	     -0.00000000	     -0.00000000	     -0.58523354	      2.70110284	     17.87632718	     -0.00000000	     -8.41966545	     -2.90045634	      0.95278579
      0.82000000	     -8.82577275	      3.26914885	     -5.02386926	      0.19507782	      0.86017800	     -1.18835389	     29.93311709	    -29.73185098	    -17.39738385	    -34.65930630	      2.69977196	      0.00000000	      0.00000000	     -0.60491901	      1.76241301	      9.22455528	     -0.00000000	     24.11862812	    -26.66278461	    -33.45093421	    -34.33082848	     -0.48540330	      0.00000000	      0.00000000	     -0.59918599	      2.99955979	     17.89952234	      0.00000000	     -8.28892142	     -2.98491532	      1.00044496
      0.82500000	     -9.07011347	      3.19150456	     -5.08216881	      0.19413738	      0.85800723	     -1.18811923	     30.72615323	    -29.72951821	    -17.08209452	    -35.44021985	      2.72499619	     -0.00000000	     -0.00000000	     -0.61854852	      2.07156789	      9.26307044	      0.00000000	     24.81341863	    -27.09641312	    -33.20037699	    -35.15684387	     -0.40688791	     -0.00000000	     -0.00000000	     -0.61360268	      3.31525924	     17.92058231	      0.00000000	     -8.15984005	     -2.88707818	      1.12614254
      0.83000000	     -9.26525703	      3.28320089	     -5.10528497	      0.19316779	      0.85589064	     -1.18800593	     31.52005261	    -29.96329999	    -16.64857717	    -36.23921027	      2.84374516	      0.00000000	      0.00000000	     -0.63249354	      2.37316025	      9.30083735	      0.00000000	     25.45718599	    -27.27238601	    -33.04429030	    -35.92030781	     -0.43911494	      0.00000000	      0.00000000	     -0.62692764	      3.61384977	     17.94743413	     -0.00000000	     -8.05412430	     -3.07232550	      1.08290143
      0.83500000	     -9.52939044	      2.91929962	     -5.16629124	      0.19218429	      0.85365599	     -1.18778697	     32.18295996	    -29.61630852	    -16.57752714	    -36.93554794	      2.75731211	     -0.00000000	     -0.00000000	     -0.64464692	      2.65538249	      9.30597941	     -0.00000000	     26.26415013	    -28.08879447	    -32.65590170	    -36.89507243	     -0.26865276	     -0.00000000	     -0.00000000	     -0.64394049	      3.96707240	     18.00169293	     -0.00000000	     -7.92288784	     -2.64891779	      1.18691457
      0.84000000	     -9.74192897	      3.09437163	     -5.20455787	      0.19121063	      0.85143911	     -1.18760410	     33.05023207	    -29.92559736	    -16.07937160	    -37.75494699	      2.89155844	     -0.00000000	     -0.00000000	     -0.65894813	      2.96306858	      9.39304421	      0.00000000	     26.88239046	    -28.15776458	    -32.56703402	    -37.57839115	     -0.33962663	      0.00000000	      0.00000000	     -0.65586665	      4.24758627	     18.03829999	      0.00000000	     -7.81237316	     -2.88676442	      1.24464500
      0.84500000	    -10.04204568	      2.78072751	     -5.29276742	      0.19020429	      0.84905199	     -1.18729611	     33.80107219	    -29.60687251	    -15.96108327	    -38.48345453	      2.79161615	     -0.00000000	      0.00000000	     -0.67166299	      3.27289956	      9.43609285	      0.00000000	     27.70275550	    -28.92082932	    -32.20513735	    -38.50329091	     -0.18176314	      0.00000000	      0.00000000	     -0.67200920	      4.56244032	     18.08925653	      0.00000000	     -7.63692912	     -2.48876578	      1.42632367
      0.85000000	    -10.28058310	      2.75453468	     -5.31756082	      0.18920885	      0.84675444	     -1.18717794	     34.57758323	    -29.68688838	    -15.64491241	    -39.23733421	      2.86810333	      0.00000000	      0.00000000	     -0.68482067	      3.54926633	      9.46948973	      0.00000000	     28.42619531	    -29.24811638	    -31.98872334	    -39.28987430	     -0.18646403	      0.00000000	      0.00000000	     -0.68573767	      4.86566036	     18.13675429	      0.00000000	     -7.51794199	     -2.46037209	      1.51264571
      0.85500000	    -10.51402192	      2.73989063	     -5.33564723	      0.18824890	      0.84445041	     -1.18703263	     35.34933897	    -29.78186609	    -15.35071694	    -40.00163768	      2.92140076	      0.00000000	      0.00000000	     -0.69816028	      3.84345412	      9.53572246	     -0.00000000	     29.12632835	    -29.54640815	    -31.75281989	    -40.03348541	     -0.18726345	      0.00000000	      0.00000000	     -0.69871613	      5.14403628	     18.18217320	      0.00000000	     -7.39925588	     -2.47643779	      1.53712112
      0.86000000	    -10.78536917	      2.62086193	     -5.37493453	      0.18726074	      0.84202192	     -1.18686030	     36.12329298	    -29.73628902	    -15.12345218	    -40.74760864	      2.93363957	     -0.00000000	     -0.00000000	     -0.71117993	      4.13834649	      9.60803399	     -0.00000000	     29.89693479	    -30.00683116	    -31.46303449	    -40.84032185	     -0.13245945	     -0.00000000	     -0.00000000	     -0.71279808	      5.44630258	     18.23381639	     -0.00000000	     -7.24111342	     -2.36738907	      1.57809017
      0.86500000	    -11.01491659	      2.58671442	     -5.36959449	      0.18630177	      0.83968393	     -1.18679073	     36.85897476	    -29.82957258	    -14.86444788	    -41.49078816	      3.00084699	     -0.00000000	     -0.00000000	     -0.72415086	      4.41818191	      9.67596921	      0.00000000	     30.62596768	    -30.31192391	    -31.19974161	    -41.59625773	     -0.14315244	      0.00000000	      0.00000000	     -0.72599165	      5.72480159	     18.27609550	     -0.00000000	     -7.13510370	     -2.35265002	      1.57722468
      0.87000000	    -11.21822686	      1.79659907	     -5.15800481	      0.18548611	      0.83758481	     -1.18730374	     36.95414762	    -29.26059234	    -15.64650415	    -41.95675867	      2.74861333	     -0.00000000	      0.00000000	     -0.73228358	      4.61576835	      9.93018235	      0.00000000	     31.69398790	    -31.34065344	    -30.11051958	    -42.56742645	      0.07078744	     -0.00000000	     -0.00000000	     -0.74294175	      6.01919185	     18.31361544	     -0.00000000	     -7.12137192	     -1.69223615	      0.80370240
      0.87500000	    -11.57270146	      2.33319014	     -5.41442233	      0.18434948	      0.83467509	     -1.18651151	     38.38637124	    -29.74461756	    -14.44252704	    -42.96791645	      3.04679665	     -0.00000000	     -0.00000000	     -0.74993161	      4.97621327	      9.76079852	     -0.00000000	     32.23126280	    -31.21804178	    -30.52072589	    -43.20059315	     -0.01607086	      0.00000000	      0.00000000	     -0.75399259	      6.30388300	     18.35979042	      0.00000000	     -6.81256243	     -2.00822114	      1.78860562
      0.88000000	    -11.72917794	      1.73186398	     -5.27196298	      0.18355117	      0.83257345	     -1.18686005	     38.56298118	    -29.35103715	    -14.93452598	    -43.48447000	      2.91168012	      0.00000000	      0.00000000	     -0.75894718	      5.23947981	      9.91616941	      0.00000000	     33.13482569	    -32.05112295	    -29.62099778	    -44.07338808	      0.17937775	     -0.00000000	     -0.00000000	     -0.76922573	      6.62159659	     18.39073671	      0.00000000	     -6.84036897	     -1.52061365	      1.19419167
      0.88500000	    -12.13319883	      2.15545933	     -5.41397541	      0.18244760	      0.82952722	     -1.18634463	     39.91877615	    -29.79192153	    -13.97469322	    -44.44422717	      3.17556363	     -0.00000000	      0.00000000	     -0.77569810	      5.54425918	      9.86479586	     -0.00000000	     33.85887173	    -32.00523494	    -29.84062557	    -44.77839264	      0.09435042	     -0.00000000	     -0.00000000	     -0.78153039	      6.86086489	     18.42628946	     -0.00000000	     -6.46078776	     -1.87549876	      1.73042877
      0.89000000	    -12.34444150	      1.92495162	     -5.39667717	      0.18155729	      0.82714832	     -1.18634930	     40.47557143	    -29.67258304	    -13.88865559	    -45.08541878	      3.18770869	     -0.00000000	     -0.00000000	     -0.78688900	      5.79740766	      9.83122322	     -0.00000000	     34.63682896	    -32.50530028	    -29.33220781	    -45.54512880	      0.19683184	     -0.00000000	     -0.00000000	     -0.79491246	      7.13500848	     18.47317207	     -0.00000000	     -6.40246250	     -1.53295985	      1.82929323
      0.89500000	    -12.60510599	      1.33911374	     -5.27107204	      0.18070773	      0.82459840	     -1.18665834	     40.81801084	    -29.29069581	    -14.34901174	    -45.67468117	      3.03008223	      0.00000000	      0.00000000	     -0.79717357	      6.13791401	     10.06841147	      0.00000000	     35.72681650	    -33.35473920	    -28.34388605	    -46.50529750	      0.45136377	      0.00000000	      0.00000000	     -0.81167056	      7.48174673	     18.47165253	     -0.00000000	     -6.28380827	     -1.12202855	      1.15989492
